<svg width="896" height="112" viewBox="0 0 896 112" fill="none" xmlns="http://www.w3.org/2000/svg">
<path d="M250.979 40.8197H255.72V85.673H250.979V40.8197Z" fill="black"/>
<path d="M299.441 86.0574C296.11 86.0574 292.907 85.5235 289.832 84.4555C286.799 83.3876 284.451 81.9779 282.785 80.2265L284.643 76.5742C286.266 78.1974 288.422 79.5217 291.113 80.5469C293.804 81.5294 296.58 82.0206 299.441 82.0206C303.456 82.0206 306.467 81.2945 308.474 79.8421C310.481 78.347 311.485 76.4247 311.485 74.0752C311.485 72.2811 310.93 70.85 309.819 69.7821C308.751 68.7142 307.428 67.9025 305.847 67.3472C304.267 66.7492 302.068 66.1084 299.249 65.4249C295.875 64.5706 293.184 63.759 291.177 62.99C289.17 62.1784 287.44 60.961 285.988 59.3377C284.579 57.7144 283.874 55.5145 283.874 52.7379C283.874 50.4738 284.472 48.4234 285.668 46.5865C286.864 44.707 288.7 43.2119 291.177 42.1012C293.654 40.9906 296.729 40.4352 300.402 40.4352C302.965 40.4352 305.463 40.7983 307.897 41.5245C310.374 42.208 312.51 43.1691 314.304 44.408L312.702 48.1884C310.823 46.9496 308.816 46.0312 306.68 45.4332C304.545 44.7924 302.452 44.472 300.402 44.472C296.473 44.472 293.505 45.2409 291.497 46.7788C289.533 48.2739 288.55 50.2175 288.55 52.6097C288.55 54.4038 289.084 55.8562 290.152 56.9669C291.262 58.0348 292.629 58.8678 294.252 59.4658C295.918 60.0212 298.138 60.6406 300.915 61.3241C304.203 62.1357 306.851 62.9473 308.858 63.759C310.908 64.5279 312.638 65.724 314.047 67.3472C315.457 68.9278 316.161 71.085 316.161 73.8189C316.161 76.0829 315.542 78.1547 314.304 80.0343C313.108 81.8711 311.25 83.3449 308.73 84.4555C306.21 85.5235 303.114 86.0574 299.441 86.0574Z" fill="black"/>
<path d="M354.87 70.2306H326.683C326.939 73.7335 328.284 76.5742 330.719 78.7528C333.153 80.8886 336.228 81.9566 339.943 81.9566C342.036 81.9566 343.958 81.5935 345.709 80.8673C347.46 80.0984 348.976 78.9877 350.258 77.5353L352.82 80.4828C351.325 82.277 349.446 83.6439 347.183 84.5837C344.962 85.5235 342.506 85.9934 339.815 85.9934C336.356 85.9934 333.281 85.2672 330.59 83.8148C327.943 82.3197 325.871 80.2692 324.376 77.6635C322.882 75.0577 322.134 72.1102 322.134 68.821C322.134 65.5317 322.839 62.5842 324.248 59.9785C325.7 57.3727 327.665 55.3436 330.142 53.8912C332.662 52.4388 335.48 51.7126 338.598 51.7126C341.716 51.7126 344.513 52.4388 346.99 53.8912C349.467 55.3436 351.411 57.3727 352.82 59.9785C354.229 62.5415 354.934 65.489 354.934 68.821L354.87 70.2306ZM338.598 55.6213C335.352 55.6213 332.619 56.6679 330.398 58.761C328.22 60.8114 326.982 63.5026 326.683 66.8346H350.578C350.279 63.5026 349.019 60.8114 346.798 58.761C344.62 56.6679 341.887 55.6213 338.598 55.6213Z" fill="black"/>
<path d="M364.192 38.1285H368.741V85.673H364.192V38.1285Z" fill="black"/>
<path d="M381.396 38.1285H385.945V85.673H381.396V38.1285Z" fill="black"/>
<path d="M427.154 51.7126C431.553 51.7126 434.927 52.8233 437.276 55.0446C439.625 57.2232 440.8 60.4697 440.8 64.7842V85.673H436.443V80.4188C435.418 82.1702 433.902 83.5371 431.895 84.5196C429.93 85.5021 427.581 85.9934 424.848 85.9934C421.09 85.9934 418.1 85.0963 415.879 83.3022C413.659 81.508 412.548 79.1372 412.548 76.1897C412.548 73.3277 413.573 71.0209 415.623 69.2695C417.716 67.5181 421.026 66.6424 425.553 66.6424H436.251V64.5919C436.251 61.6872 435.44 59.4872 433.817 57.9921C432.194 56.4543 429.824 55.6854 426.706 55.6854C424.571 55.6854 422.521 56.0485 420.556 56.7747C418.591 57.4581 416.904 58.4193 415.495 59.6581L413.445 56.262C415.153 54.8096 417.203 53.699 419.595 52.9301C421.987 52.1184 424.506 51.7126 427.154 51.7126ZM425.553 82.4051C428.115 82.4051 430.315 81.8284 432.151 80.675C433.988 79.479 435.354 77.7703 436.251 75.549V70.0384H425.681C419.915 70.0384 417.032 72.0461 417.032 76.0616C417.032 78.0266 417.78 79.5858 419.275 80.7391C420.769 81.8498 422.862 82.4051 425.553 82.4051Z" fill="black"/>
<path d="M470.322 51.7126C474.55 51.7126 477.903 52.9514 480.38 55.4291C482.9 57.8639 484.16 61.4309 484.16 66.1298V85.673H479.611V66.5783C479.611 63.0755 478.736 60.4056 476.985 58.5688C475.234 56.7319 472.735 55.8135 469.49 55.8135C465.859 55.8135 462.977 56.9028 460.841 59.0814C458.748 61.2173 457.702 64.1861 457.702 67.988V85.673H453.154V51.9689H457.51V58.1843C458.748 56.1339 460.457 54.5533 462.635 53.4427C464.856 52.2893 467.418 51.7126 470.322 51.7126Z" fill="black"/>
<path d="M527.383 38.1285V85.673H523.027V79.0091C521.66 81.2731 519.845 83.0032 517.582 84.1992C515.361 85.3953 512.841 85.9934 510.023 85.9934C506.862 85.9934 504.001 85.2672 501.438 83.8148C498.876 82.3624 496.868 80.3333 495.416 77.7276C493.964 75.1218 493.238 72.1529 493.238 68.821C493.238 65.489 493.964 62.5201 495.416 59.9144C496.868 57.3086 498.876 55.3009 501.438 53.8912C504.001 52.4388 506.862 51.7126 510.023 51.7126C512.756 51.7126 515.212 52.2893 517.39 53.4427C519.61 54.5533 521.426 56.198 522.835 58.3766V38.1285H527.383ZM510.407 81.9566C512.756 81.9566 514.87 81.4226 516.749 80.3547C518.671 79.244 520.166 77.6848 521.233 75.6771C522.344 73.6694 522.899 71.384 522.899 68.821C522.899 66.2579 522.344 63.9725 521.233 61.9648C520.166 59.9571 518.671 58.4193 516.749 57.3513C514.87 56.2407 512.756 55.6854 510.407 55.6854C508.015 55.6854 505.858 56.2407 503.937 57.3513C502.057 58.4193 500.563 59.9571 499.452 61.9648C498.385 63.9725 497.851 66.2579 497.851 68.821C497.851 71.384 498.385 73.6694 499.452 75.6771C500.563 77.6848 502.057 79.244 503.937 80.3547C505.858 81.4226 508.015 81.9566 510.407 81.9566Z" fill="black"/>
<path d="M586.029 62.5415C588.976 63.1823 591.24 64.4638 592.82 66.3861C594.443 68.2656 595.254 70.7005 595.254 73.6908C595.254 77.5353 593.824 80.5042 590.962 82.5973C588.143 84.6478 583.958 85.673 578.406 85.673H557.778V40.8197H577.125C582.122 40.8197 585.987 41.8235 588.72 43.8313C591.496 45.839 592.884 48.6797 592.884 52.3534C592.884 54.831 592.265 56.9455 591.026 58.6969C589.83 60.4056 588.165 61.6872 586.029 62.5415ZM562.519 44.7283V61.0037H576.804C580.435 61.0037 583.232 60.3202 585.197 58.9532C587.161 57.5436 588.143 55.5145 588.143 52.866C588.143 50.2175 587.161 48.2098 585.197 46.8428C583.232 45.4332 580.435 44.7283 576.804 44.7283H562.519ZM578.342 81.7644C582.357 81.7644 585.389 81.0809 587.439 79.7139C589.489 78.347 590.514 76.2111 590.514 73.3063C590.514 67.7103 586.457 64.9123 578.342 64.9123H562.519V81.7644H578.342Z" fill="black"/>
<path d="M635.48 51.9689V85.673H631.123V79.5217C629.927 81.5721 628.283 83.174 626.19 84.3274C624.098 85.438 621.706 85.9934 619.015 85.9934C614.617 85.9934 611.136 84.7759 608.573 82.341C606.054 79.8634 604.794 76.2538 604.794 71.5122V51.9689H609.342V71.0636C609.342 74.6092 610.218 77.3004 611.969 79.1372C613.72 80.9741 616.218 81.8925 619.464 81.8925C623.009 81.8925 625.806 80.8246 627.856 78.6887C629.906 76.5101 630.931 73.4985 630.931 69.654V51.9689H635.48Z" fill="black"/>
<path d="M676.534 51.9689L659.686 89.7098C658.319 92.8709 656.739 95.1135 654.945 96.4378C653.151 97.762 650.994 98.4241 648.475 98.4241C646.852 98.4241 645.336 98.1678 643.926 97.6552C642.517 97.1426 641.3 96.3737 640.275 95.3485L642.389 91.9525C644.097 93.6612 646.147 94.5155 648.539 94.5155C650.076 94.5155 651.379 94.0883 652.447 93.234C653.557 92.3796 654.582 90.9272 655.522 88.8768L656.995 85.6089L641.94 51.9689H646.681L659.365 80.611L672.05 51.9689H676.534Z" fill="black"/>
<path d="M762.231 40.8197L747.112 85.673H742.115L728.983 47.4195L715.786 85.673H710.853L695.734 40.8197H700.603L713.544 79.3935L726.933 40.8197H731.353L744.55 79.5858L757.682 40.8197H762.231Z" fill="black"/>
<path d="M779.184 51.7126C783.583 51.7126 786.957 52.8233 789.306 55.0446C791.655 57.2232 792.83 60.4697 792.83 64.7842V85.673H788.473V80.4188C787.448 82.1702 785.932 83.5371 783.925 84.5196C781.96 85.5021 779.611 85.9934 776.878 85.9934C773.12 85.9934 770.13 85.0963 767.909 83.3022C765.689 81.508 764.578 79.1372 764.578 76.1897C764.578 73.3277 765.603 71.0209 767.653 69.2695C769.746 67.5181 773.056 66.6424 777.583 66.6424H788.281V64.5919C788.281 61.6872 787.47 59.4872 785.847 57.9921C784.224 56.4543 781.854 55.6854 778.736 55.6854C776.601 55.6854 774.551 56.0485 772.586 56.7747C770.621 57.4581 768.934 58.4193 767.525 59.6581L765.475 56.262C767.183 54.8096 769.233 53.699 771.625 52.9301C774.017 52.1184 776.536 51.7126 779.184 51.7126ZM777.583 82.4051C780.145 82.4051 782.345 81.8284 784.181 80.675C786.018 79.479 787.384 77.7703 788.281 75.549V70.0384H777.711C771.945 70.0384 769.063 72.0461 769.063 76.0616C769.063 78.0266 769.81 79.5858 771.305 80.7391C772.8 81.8498 774.892 82.4051 777.583 82.4051Z" fill="black"/>
<path d="M805.184 38.1285H809.732V85.673H805.184V38.1285Z" fill="black"/>
<path d="M822.388 38.1285H826.936V85.673H822.388V38.1285Z" fill="black"/>
<path d="M868.933 70.2306H840.745C841.002 73.7335 842.347 76.5742 844.781 78.7528C847.216 80.8886 850.291 81.9566 854.006 81.9566C856.099 81.9566 858.021 81.5935 859.772 80.8673C861.523 80.0984 863.039 78.9877 864.32 77.5353L866.883 80.4828C865.388 82.277 863.509 83.6439 861.245 84.5837C859.024 85.5235 856.569 85.9934 853.878 85.9934C850.419 85.9934 847.344 85.2672 844.653 83.8148C842.005 82.3197 839.934 80.2692 838.439 77.6635C836.944 75.0577 836.197 72.1102 836.197 68.821C836.197 65.5317 836.902 62.5842 838.311 59.9785C839.763 57.3727 841.728 55.3436 844.205 53.8912C846.724 52.4388 849.543 51.7126 852.661 51.7126C855.779 51.7126 858.576 52.4388 861.053 53.8912C863.53 55.3436 865.473 57.3727 866.883 59.9785C868.292 62.5415 868.997 65.489 868.997 68.821L868.933 70.2306ZM852.661 55.6213C849.415 55.6213 846.682 56.6679 844.461 58.761C842.283 60.8114 841.044 63.5026 840.745 66.8346H864.641C864.342 63.5026 863.082 60.8114 860.861 58.761C858.683 56.6679 855.949 55.6213 852.661 55.6213Z" fill="black"/>
<path d="M896 83.6226C895.146 84.3915 894.078 84.9895 892.797 85.4167C891.558 85.8011 890.256 85.9934 888.889 85.9934C885.729 85.9934 883.294 85.139 881.586 83.4303C879.878 81.7216 879.023 79.3081 879.023 76.1897V55.8135H873.002V51.9689H879.023V44.6002H883.572V51.9689H893.822V55.8135H883.572V75.9334C883.572 77.9411 884.063 79.479 885.045 80.5469C886.07 81.5721 887.522 82.0847 889.402 82.0847C890.341 82.0847 891.238 81.9352 892.092 81.6362C892.989 81.3372 893.758 80.91 894.398 80.3547L896 83.6226Z" fill="black"/>
<path d="M1.9292 0.64289H9.96363V56.896H1.9292V0.64289Z" fill="black"/>
<path d="M43.1917 57.5389C38.9602 57.5389 34.8626 56.896 30.899 55.6103C26.9889 54.2709 23.909 52.5565 21.6594 50.4671L24.6321 44.1989C26.7746 46.1276 29.5063 47.708 32.8272 48.9402C36.2017 50.1189 39.6565 50.7082 43.1917 50.7082C47.8516 50.7082 51.3332 49.9314 53.6364 48.3777C55.9396 46.7705 57.0912 44.6543 57.0912 42.0291C57.0912 40.1005 56.4485 38.5468 55.163 37.3682C53.931 36.136 52.3777 35.1984 50.503 34.5555C48.6819 33.9126 46.0841 33.1894 42.7096 32.3857C38.4781 31.3678 35.0501 30.3499 32.4255 29.332C29.8545 28.3141 27.6316 26.7604 25.7569 24.671C23.9358 22.528 23.0252 19.6618 23.0252 16.0723C23.0252 13.0722 23.8019 10.3667 25.3552 7.9558C26.9621 5.54495 29.3724 3.61627 32.5862 2.16976C35.8 0.723253 39.7904 0 44.5575 0C47.8784 0 51.1457 0.428595 54.3595 1.28578C57.5733 2.14297 60.3318 3.37519 62.635 4.98242L59.9836 11.4114C57.6269 9.91127 55.1094 8.7862 52.4313 8.03616C49.7531 7.23255 47.1285 6.83074 44.5575 6.83074C40.0047 6.83074 36.5766 7.66114 34.2734 9.32195C32.0238 10.9828 30.899 13.1257 30.899 15.7509C30.899 17.6796 31.5417 19.26 32.8272 20.4922C34.1127 21.6709 35.6929 22.6084 37.5676 23.3049C39.4958 23.9478 42.0936 24.6442 45.361 25.3943C49.5924 26.4122 52.9937 27.4301 55.5647 28.448C58.1357 29.4659 60.3318 31.0196 62.1529 33.109C64.0276 35.1984 64.965 38.0111 64.965 41.547C64.965 44.4936 64.1615 47.1991 62.5546 49.6635C60.9478 52.0743 58.5106 54.003 55.2433 55.4495C51.976 56.8425 47.9588 57.5389 43.1917 57.5389Z" fill="black"/>
<path d="M117.839 57.78L110.367 50.3064C105.386 55.1281 99.1188 57.5389 91.5665 57.5389C87.8171 57.5389 84.4426 56.9228 81.4431 55.6906C78.4436 54.4584 76.0868 52.744 74.3728 50.5475C72.7123 48.2973 71.8821 45.7526 71.8821 42.9131C71.8821 39.4844 72.9266 36.4574 75.0155 33.8323C77.1581 31.1535 80.6664 28.4212 85.5407 25.6354C83.0768 23.1709 81.336 20.9476 80.3183 18.9653C79.3006 16.9831 78.7917 14.9205 78.7917 12.7775C78.7917 8.97372 80.1576 5.91997 82.8893 3.61627C85.6746 1.31257 89.3704 0.160721 93.9768 0.160721C98.2618 0.160721 101.663 1.20542 104.181 3.29482C106.698 5.38423 107.957 8.25046 107.957 11.8935C107.957 14.733 107.019 17.2777 105.145 19.5279C103.324 21.778 100.27 24.1353 95.9854 26.5997L109.885 40.4219C111.492 37.3682 112.643 33.9662 113.34 30.216L119.526 32.225C118.562 37.1539 116.928 41.4398 114.625 45.0829L122.178 52.6369L117.839 57.78ZM93.9768 5.78604C91.4593 5.78604 89.4775 6.42893 88.0313 7.71471C86.6387 8.94693 85.9424 10.5809 85.9424 12.6168C85.9424 14.0633 86.3173 15.4562 87.0672 16.7956C87.8706 18.1349 89.3972 19.9565 91.6468 22.2602C95.3427 20.1708 97.8869 18.376 99.2795 16.8759C100.726 15.3759 101.449 13.7418 101.449 11.9739C101.449 10.0988 100.779 8.59869 99.4402 7.47363C98.1547 6.34857 96.3336 5.78604 93.9768 5.78604ZM92.0485 51.11C97.6191 51.11 102.199 49.342 105.787 45.8061L89.7989 29.8945C85.9424 32.0375 83.2374 34.0465 81.6841 35.9217C80.1844 37.7432 79.4345 39.8058 79.4345 42.1095C79.4345 44.7882 80.5861 46.958 82.8893 48.6188C85.2461 50.2796 88.2991 51.11 92.0485 51.11Z" fill="black"/>
<path d="M169.625 27.7248C172.892 28.6355 175.463 30.2963 177.338 32.7072C179.212 35.0645 180.15 38.0646 180.15 41.7077C180.15 46.583 178.302 50.3332 174.606 52.9583C170.964 55.5835 165.634 56.896 158.618 56.896H131.783V0.64289H157.011C163.438 0.64289 168.393 1.92868 171.874 4.50025C175.41 7.07182 177.177 10.6345 177.177 15.1883C177.177 18.1349 176.481 20.6797 175.088 22.8227C173.749 24.9657 171.928 26.5997 169.625 27.7248ZM139.817 7.15218V25.1532H156.288C160.412 25.1532 163.572 24.4032 165.768 22.9031C168.018 21.3494 169.143 19.0993 169.143 16.1527C169.143 13.2061 168.018 10.9828 165.768 9.48267C163.572 7.92901 160.412 7.15218 156.288 7.15218H139.817ZM158.296 50.3867C162.849 50.3867 166.277 49.6367 168.58 48.1366C170.883 46.6365 172.035 44.2793 172.035 41.0648C172.035 34.7966 167.455 31.6625 158.296 31.6625H139.817V50.3867H158.296Z" fill="black"/>
<path d="M58.4218 71.5896L44.8207 111.77H41.7217L29.2683 75.7225L16.7575 111.77H13.6585L0 71.5896H3.099L15.3228 107.752L27.891 71.5896H30.703L43.2138 107.81L55.5524 71.5896H58.4218Z" fill="black"/>
<path d="M73.7428 81.5774C77.454 81.5774 80.3043 82.5341 82.2937 84.4474C84.2832 86.3225 85.278 89.0969 85.278 92.7706V111.77H82.5233V106.432C81.5668 108.192 80.1704 109.57 78.3339 110.565C76.4975 111.522 74.2976 112 71.7342 112C68.4057 112 65.7658 111.216 63.8145 109.647C61.9016 108.078 60.9451 106.011 60.9451 103.447C60.9451 100.96 61.8251 98.9508 63.585 97.4201C65.3832 95.8511 68.2335 95.0667 72.1359 95.0667H82.4085V92.6558C82.4085 89.8623 81.6433 87.7384 80.113 86.2843C78.6209 84.8301 76.421 84.103 73.5133 84.103C71.5238 84.103 69.6108 84.4474 67.7744 85.1363C65.9762 85.8251 64.4458 86.7435 63.1833 87.8915L61.7486 85.8251C63.2407 84.4857 65.0388 83.4525 67.1431 82.7254C69.2474 81.9601 71.4473 81.5774 73.7428 81.5774ZM72.1359 109.647C74.6228 109.647 76.727 109.073 78.4487 107.925C80.2086 106.776 81.5286 105.112 82.4085 102.931V97.3053H72.1933C69.2474 97.3053 67.1048 97.841 65.7658 98.9125C64.465 99.984 63.8145 101.457 63.8145 103.332C63.8145 105.284 64.5415 106.834 65.9953 107.982C67.4492 109.092 69.496 109.647 72.1359 109.647Z" fill="black"/>
<path d="M97.1005 69.1787H99.9699V111.77H97.1005V69.1787Z" fill="black"/>
<path d="M112.064 69.1787H114.934V111.77H112.064V69.1787Z" fill="black"/>
<path d="M152.336 97.4775H126.569C126.645 99.8118 127.238 101.897 128.348 103.734C129.457 105.533 130.949 106.93 132.824 107.925C134.737 108.919 136.88 109.417 139.252 109.417C141.203 109.417 143.001 109.073 144.646 108.384C146.33 107.657 147.726 106.604 148.836 105.227L150.5 107.121C149.199 108.69 147.554 109.895 145.564 110.737C143.613 111.579 141.49 112 139.194 112C136.21 112 133.551 111.349 131.217 110.048C128.883 108.747 127.047 106.949 125.708 104.653C124.407 102.357 123.757 99.7353 123.757 96.7887C123.757 93.8804 124.369 91.2782 125.593 88.9821C126.856 86.6478 128.577 84.8301 130.758 83.529C132.939 82.2279 135.387 81.5774 138.104 81.5774C140.82 81.5774 143.25 82.2279 145.392 83.529C147.573 84.7919 149.276 86.5713 150.5 88.8673C151.762 91.1634 152.394 93.7656 152.394 96.6739L152.336 97.4775ZM138.104 84.103C136 84.103 134.106 84.5814 132.422 85.5381C130.739 86.4565 129.381 87.7767 128.348 89.4987C127.353 91.1825 126.779 93.0959 126.626 95.2389H149.582C149.467 93.0959 148.893 91.1825 147.86 89.4987C146.827 87.815 145.469 86.4947 143.785 85.5381C142.102 84.5814 140.208 84.103 138.104 84.103Z" fill="black"/>
<path d="M176.134 109.876C175.407 110.565 174.489 111.101 173.38 111.483C172.308 111.828 171.18 112 169.994 112C167.392 112 165.383 111.292 163.968 109.876C162.552 108.422 161.844 106.413 161.844 103.849V84.2752H156.335V81.807H161.844V75.2633H164.714V81.807H174.24V84.2752H164.714V103.562C164.714 105.514 165.173 107.006 166.091 108.039C167.048 109.034 168.444 109.532 170.281 109.532C172.155 109.532 173.705 108.977 174.929 107.867L176.134 109.876Z" fill="black"/>
</svg>
