<svg width="900" height="223" viewBox="0 0 900 223" fill="none" xmlns="http://www.w3.org/2000/svg">
<path d="M124.523 140.969C121.992 145.216 119.358 148.915 116.665 151.978C115.437 153.384 114.239 154.656 113.04 155.707C109.696 158.607 106.189 159.924 100.996 158.504C72.8077 150.78 45.6555 124.367 31.0954 91.6516C28.7427 86.3839 26.9523 97.008 27.2038 108.579C27.485 121.334 39.352 167.707 83.7425 182.978C91.0374 185.493 95.3136 191.279 95.3136 199.535C95.3136 211.018 84.4084 222.781 72.926 222.781C66.0455 222.781 61.0738 219.955 57.8037 219.171C43.9243 215.856 -33.4336 148.901 16.7129 58.0628C18.3997 54.9998 20.4565 51.7593 22.8536 49.3918C24.8659 47.4682 28.0029 45.959 31.2878 45.959C37.9907 45.959 42.193 53.5793 43.3324 60.0899C50.3905 100.456 72.0234 126.173 91.8216 132.876C95.5208 134.133 99.146 134.725 102.608 134.636C107.092 134.503 110.51 128.081 112.981 119.188C116.118 107.884 117.731 92.5838 118.056 81.1014C118.5 65.7423 114.712 51.7445 109.948 40.277C108.616 37.0365 107.21 34.0179 105.775 31.2213C102.83 25.4062 101.292 17.6526 105.228 10.7869C109.163 3.90636 115.334 0 123.768 0C126.298 0 128.814 0.399513 131.122 1.18375C134.866 2.42668 138.091 4.6906 140.104 7.9311C142.456 11.6895 144.247 17.0903 145.371 26.3975C150.95 71.7794 139.571 115.874 124.523 140.969Z" fill="url(#paint0_linear)"/>
<path d="M93.7009 128.244C96.6158 129.235 99.4568 129.739 102.15 129.739C102.357 129.739 102.549 129.739 102.712 129.739C102.742 129.739 104.725 131.277 107.699 120.624C108.291 118.508 100.256 97.3039 105.967 78.8374C108.557 70.492 110.111 67.6806 109.622 58.0331C106.263 40.3657 96.2755 35.7935 85.459 35.7935C74.9089 35.7935 63.4709 46.3732 62.5683 56.5978C61.281 71.2911 62.6127 89.4172 66.7114 105.768C75.0569 117.65 84.7932 125.225 93.7009 128.244Z" fill="url(#paint1_linear)"/>
<path d="M228.086 77.8906C223.647 67.2961 212.653 60.6079 200.164 63.6561C193.609 65.2541 188.622 70.0483 186.299 75.8635C183.044 84.0165 188.785 94.5667 192.618 99.8195C207.252 119.928 202.931 158.622 195.044 167.545C195.03 167.559 196.894 154.893 195.695 142.73C193.816 123.657 188.208 110.71 171.532 104.377C169.239 103.504 166.827 105.191 166.782 107.647C166.279 135.791 149.544 157.512 128.34 144.595C128.311 144.654 123.354 151.771 120.675 155.263C112.256 166.213 104.961 164.038 104.813 164.038C129.05 181.454 150.121 174.899 158.851 168.817C173.411 158.667 176.297 144.402 176.297 144.402C176.297 144.402 180.144 152.866 167.182 182.963C160.124 199.343 162.506 208.991 166.279 210.973C194.29 225.667 235.203 170.756 235.203 115.415C235.173 104.643 232.125 87.5086 228.086 77.8906Z" fill="url(#paint2_linear)"/>
<path d="M281.502 176.378H268.274V88.8105H280.585L325.967 153.369H326.455V88.8105H339.683V176.363H327.432L282.05 111.864H281.502V176.378Z" fill="url(#paint3_linear)"/>
<path d="M396.548 157.631H408.992C408.06 163.49 405.071 168.284 400.01 172.013C394.95 175.742 388.779 177.592 381.499 177.592C372.148 177.592 364.808 174.647 359.437 168.758C354.081 162.869 351.402 154.878 351.402 144.757C351.402 134.725 354.081 126.661 359.437 120.55C364.794 114.439 371.97 111.391 380.952 111.391C389.771 111.391 396.77 114.276 401.948 120.032C407.127 125.788 409.717 133.527 409.717 143.233V147.732H364.631V148.516C364.631 154.094 366.184 158.563 369.307 161.922C372.429 165.281 376.587 166.953 381.81 166.953C385.494 166.953 388.646 166.109 391.28 164.408C393.899 162.721 395.66 160.457 396.548 157.631ZM392.049 126.557C389.179 123.48 385.48 121.941 380.952 121.941C376.424 121.941 372.666 123.494 369.662 126.587C366.673 129.68 365.016 133.675 364.69 138.572H396.607C396.444 133.645 394.92 129.635 392.049 126.557Z" fill="url(#paint4_linear)"/>
<path d="M462.142 157.631H474.586C473.654 163.49 470.665 168.284 465.604 172.013C460.544 175.742 454.374 177.592 447.094 177.592C437.742 177.592 430.403 174.647 425.031 168.758C419.675 162.869 416.997 154.878 416.997 144.757C416.997 134.725 419.675 126.661 425.031 120.55C430.388 114.439 437.564 111.391 446.546 111.391C455.365 111.391 462.364 114.276 467.543 120.032C472.722 125.788 475.311 133.527 475.311 143.233V147.732H430.225V148.516C430.225 154.094 431.779 158.563 434.901 161.922C438.023 165.281 442.181 166.953 447.404 166.953C451.089 166.953 454.24 166.109 456.874 164.408C459.493 162.721 461.254 160.457 462.142 157.631ZM457.644 126.557C454.773 123.48 451.074 121.941 446.546 121.941C442.018 121.941 438.26 123.494 435.256 126.587C432.267 129.68 430.61 133.675 430.284 138.572H462.201C462.038 133.645 460.514 129.635 457.644 126.557Z" fill="url(#paint5_linear)"/>
<path d="M534.898 168.699C529.394 174.617 522.054 177.592 512.865 177.592C503.677 177.592 496.337 174.632 490.833 168.699C485.329 162.78 482.576 154.686 482.576 144.462C482.576 134.267 485.329 126.202 490.833 120.284C496.337 114.365 503.677 111.391 512.865 111.391C522.054 111.391 529.394 114.35 534.898 120.284C540.402 126.217 543.155 134.267 543.155 144.462C543.14 154.701 540.388 162.78 534.898 168.699ZM512.865 166.79C518.089 166.79 522.202 164.822 525.236 160.901C528.269 156.98 529.778 151.49 529.778 144.462C529.778 137.463 528.254 132.003 525.206 128.081C522.143 124.16 518.03 122.192 512.865 122.192C507.687 122.192 503.573 124.16 500.51 128.081C497.462 132.003 495.923 137.463 495.923 144.462C495.923 151.505 497.447 156.98 500.51 160.901C503.573 164.822 507.687 166.79 512.865 166.79Z" fill="url(#paint6_linear)"/>
<path d="M629.968 110.355L611.102 176.378H598.243L574.642 88.8254H588.773L604.976 157.394H605.464L623.975 88.8254H636.597L655.167 157.394H655.655L671.857 88.8254H685.988L662.328 176.378H649.529L630.604 110.355H629.968V110.355Z" fill="url(#paint7_linear)"/>
<path d="M705.461 177.473C699.187 177.473 694.082 175.698 690.146 172.132C686.195 168.58 684.227 163.934 684.227 158.237C684.227 152.659 686.284 148.22 690.412 144.92C694.541 141.621 700.386 139.771 707.947 139.371L725.422 138.336V133.423C725.422 129.872 724.282 127.09 722.018 125.078C719.755 123.08 716.618 122.074 712.608 122.074C708.879 122.074 705.86 122.903 703.537 124.56C701.214 126.217 699.749 128.511 699.143 131.411H686.772C687.142 125.507 689.687 120.698 694.422 116.969C699.157 113.255 705.387 111.391 713.111 111.391C720.835 111.391 726.99 113.299 731.592 117.102C736.179 120.905 738.473 125.995 738.473 132.387V176.378H725.91V165.887H725.599C723.779 169.409 721.012 172.22 717.313 174.322C713.614 176.423 709.663 177.473 705.461 177.473ZM709.101 167.086C713.717 167.086 717.579 165.68 720.716 162.869C723.853 160.057 725.422 156.595 725.422 152.467V147.436L709.708 148.412C705.786 148.693 702.753 149.655 700.637 151.298C698.506 152.94 697.456 155.13 697.456 157.882C697.456 160.679 698.521 162.913 700.637 164.585C702.753 166.257 705.579 167.086 709.101 167.086Z" fill="url(#paint8_linear)"/>
<path d="M751.627 176.378V88.8105H764.737V176.363H751.627V176.378Z" fill="url(#paint9_linear)"/>
<path d="M778.69 176.378V88.8105H791.8V176.363H778.69V176.378Z" fill="url(#paint10_linear)"/>
<path d="M847.57 157.631H860.014C859.082 163.49 856.093 168.284 851.032 172.013C845.972 175.742 839.801 177.592 832.521 177.592C823.17 177.592 815.83 174.647 810.459 168.758C805.103 162.869 802.425 154.878 802.425 144.757C802.425 134.725 805.103 126.661 810.459 120.55C815.816 114.439 822.992 111.391 831.974 111.391C840.793 111.391 847.792 114.276 852.971 120.032C858.149 125.788 860.739 133.527 860.739 143.233V147.732H815.653V148.516C815.653 154.094 817.207 158.563 820.329 161.922C823.451 165.281 827.609 166.953 832.832 166.953C836.516 166.953 839.668 166.109 842.302 164.408C844.921 162.721 846.667 160.457 847.57 157.631ZM843.072 126.557C840.201 123.48 836.502 121.941 831.974 121.941C827.446 121.941 823.688 123.494 820.684 126.587C817.68 129.68 816.038 133.675 815.712 138.572H847.629C847.466 133.645 845.942 129.635 843.072 126.557Z" fill="url(#paint11_linear)"/>
<path d="M874.692 97.4373H887.862V112.545H899.995V122.917H887.862V158.119C887.862 160.871 888.483 162.898 889.741 164.186C890.999 165.488 892.952 166.124 895.63 166.124C897.568 166.124 899.004 166.021 899.936 165.813V176.186C898.323 176.586 895.896 176.793 892.656 176.793C886.219 176.793 881.617 175.476 878.85 172.812C876.083 170.164 874.692 165.739 874.692 159.554V122.903H865.415V112.53H874.692V97.4373Z" fill="url(#paint12_linear)"/>
<defs>
<linearGradient id="paint0_linear" x1="4.71147" y1="152.828" x2="171.744" y2="78.4608" gradientUnits="userSpaceOnUse">
<stop offset="0.0321" stop-color="#066358"/>
<stop offset="0.4991" stop-color="#339484"/>
<stop offset="0.5069" stop-color="#349585"/>
<stop offset="0.9706" stop-color="#09A390"/>
</linearGradient>
<linearGradient id="paint1_linear" x1="62.4362" y1="96.1536" x2="117.055" y2="71.8359" gradientUnits="userSpaceOnUse">
<stop offset="0.0321" stop-color="#066358"/>
<stop offset="0.4991" stop-color="#339484"/>
<stop offset="0.5069" stop-color="#349585"/>
<stop offset="0.9706" stop-color="#09A390"/>
</linearGradient>
<linearGradient id="paint2_linear" x1="109.484" y1="174.54" x2="244.388" y2="114.477" gradientUnits="userSpaceOnUse">
<stop offset="0.0321" stop-color="#066358"/>
<stop offset="0.4991" stop-color="#339484"/>
<stop offset="0.5069" stop-color="#349585"/>
<stop offset="0.9706" stop-color="#09A390"/>
</linearGradient>
<linearGradient id="paint3_linear" x1="268.271" y1="132.596" x2="339.69" y2="132.596" gradientUnits="userSpaceOnUse">
<stop offset="0.0321" stop-color="#066358"/>
<stop offset="0.7625" stop-color="#089483"/>
<stop offset="0.9706" stop-color="#09A390"/>
</linearGradient>
<linearGradient id="paint4_linear" x1="351.401" y1="144.489" x2="409.712" y2="144.489" gradientUnits="userSpaceOnUse">
<stop offset="0.0321" stop-color="#066358"/>
<stop offset="0.7625" stop-color="#089483"/>
<stop offset="0.9706" stop-color="#09A390"/>
</linearGradient>
<linearGradient id="paint5_linear" x1="416.994" y1="144.489" x2="475.306" y2="144.489" gradientUnits="userSpaceOnUse">
<stop offset="0.0321" stop-color="#066358"/>
<stop offset="0.7625" stop-color="#089483"/>
<stop offset="0.9706" stop-color="#09A390"/>
</linearGradient>
<linearGradient id="paint6_linear" x1="482.587" y1="144.489" x2="543.142" y2="144.489" gradientUnits="userSpaceOnUse">
<stop offset="0.0321" stop-color="#066358"/>
<stop offset="0.7625" stop-color="#089483"/>
<stop offset="0.9706" stop-color="#09A390"/>
</linearGradient>
<linearGradient id="paint7_linear" x1="574.636" y1="132.596" x2="685.981" y2="132.596" gradientUnits="userSpaceOnUse">
<stop offset="0.0321" stop-color="#066358"/>
<stop offset="0.7625" stop-color="#089483"/>
<stop offset="0.9706" stop-color="#09A390"/>
</linearGradient>
<linearGradient id="paint8_linear" x1="684.22" y1="144.429" x2="738.466" y2="144.429" gradientUnits="userSpaceOnUse">
<stop offset="0.0321" stop-color="#066358"/>
<stop offset="0.7625" stop-color="#089483"/>
<stop offset="0.9706" stop-color="#09A390"/>
</linearGradient>
<linearGradient id="paint9_linear" x1="751.632" y1="132.596" x2="764.738" y2="132.596" gradientUnits="userSpaceOnUse">
<stop offset="0.0321" stop-color="#066358"/>
<stop offset="0.7625" stop-color="#089483"/>
<stop offset="0.9706" stop-color="#09A390"/>
</linearGradient>
<linearGradient id="paint10_linear" x1="778.696" y1="132.596" x2="791.802" y2="132.596" gradientUnits="userSpaceOnUse">
<stop offset="0.0321" stop-color="#066358"/>
<stop offset="0.7625" stop-color="#089483"/>
<stop offset="0.9706" stop-color="#09A390"/>
</linearGradient>
<linearGradient id="paint11_linear" x1="802.42" y1="144.489" x2="860.733" y2="144.489" gradientUnits="userSpaceOnUse">
<stop offset="0.0321" stop-color="#066358"/>
<stop offset="0.7625" stop-color="#089483"/>
<stop offset="0.9706" stop-color="#09A390"/>
</linearGradient>
<linearGradient id="paint12_linear" x1="865.406" y1="137.117" x2="899.991" y2="137.117" gradientUnits="userSpaceOnUse">
<stop offset="0.0321" stop-color="#066358"/>
<stop offset="0.7625" stop-color="#089483"/>
<stop offset="0.9706" stop-color="#09A390"/>
</linearGradient>
</defs>
</svg>
