<svg width="35" height="33" viewBox="0 0 35 33" fill="none" xmlns="http://www.w3.org/2000/svg">
<g clip-path="url(#clip0)">
<path d="M18.5299 20.9773C18.1534 21.6093 17.7615 22.1597 17.3607 22.6155C17.178 22.8247 16.9996 23.0141 16.8213 23.1704C16.3236 23.602 15.8018 23.7979 15.0289 23.5866C10.8343 22.4372 6.79389 18.5068 4.62723 13.6385C4.27713 12.8546 4.01071 14.4355 4.04814 16.1574C4.08997 18.0554 5.85588 24.9561 12.4615 27.2285C13.5471 27.6028 14.1834 28.4637 14.1834 29.6924C14.1834 31.401 12.5606 33.1515 10.852 33.1515C9.82808 33.1515 9.08825 32.731 8.60163 32.6143C6.53627 32.121 -4.97517 22.1575 2.487 8.64018C2.73802 8.18439 3.04408 7.70218 3.40079 7.34988C3.70024 7.06364 4.16704 6.83904 4.65586 6.83904C5.65331 6.83904 6.27865 7.97301 6.44819 8.94184C7.49849 14.9486 10.7176 18.7754 13.6638 19.7729C14.2142 19.9601 14.7537 20.0481 15.2689 20.0349C15.9361 20.0151 16.4447 19.0595 16.8124 17.7362C17.2792 16.0539 17.5193 13.7772 17.5677 12.0685C17.6337 9.78296 17.0701 7.69998 16.3611 5.99352C16.1629 5.51131 15.9537 5.06213 15.7401 4.64597C15.302 3.78063 15.073 2.62685 15.6587 1.60517C16.2444 0.581297 17.1625 0 18.4176 0C18.7941 0 19.1685 0.0594506 19.512 0.17615C20.069 0.361108 20.549 0.697997 20.8485 1.18021C21.1986 1.73949 21.465 2.54317 21.6324 3.92816C22.4625 10.6813 20.7692 17.2429 18.5299 20.9773Z" fill="url(#paint0_linear)"/>
<path d="M13.9434 19.0838C14.3772 19.2313 14.7999 19.3062 15.2007 19.3062C15.2315 19.3062 15.2601 19.3062 15.2844 19.3062C15.2888 19.3062 15.5838 19.5352 16.0264 17.9498C16.1145 17.6349 14.9188 14.4796 15.7688 11.7317C16.1541 10.4898 16.3853 10.0715 16.3126 8.63584C15.8128 6.0068 14.3265 5.32642 12.717 5.32642C11.147 5.32642 9.44497 6.90076 9.31065 8.42226C9.11909 10.6087 9.31726 13.306 9.92718 15.7391C11.169 17.5072 12.6179 18.6346 13.9434 19.0838Z" fill="url(#paint1_linear)"/>
<path d="M33.941 11.5906C33.2805 10.0141 31.6445 9.01881 29.7861 9.47239C28.8107 9.7102 28.0686 10.4236 27.7229 11.2889C27.2385 12.5022 28.0928 14.0721 28.6631 14.8538C30.8408 17.8462 30.1978 23.6041 29.0242 24.9318C29.022 24.934 29.2995 23.0492 29.1211 21.2393C28.8415 18.401 28.007 16.4744 25.5255 15.532C25.1842 15.4021 24.8253 15.6531 24.8186 16.0186C24.7438 20.2066 22.2535 23.4389 19.0982 21.5167C19.0938 21.5255 18.3561 22.5846 17.9576 23.1042C16.7047 24.7336 15.6192 24.41 15.5972 24.41C19.2038 27.0016 22.3393 26.0261 23.6384 25.1212C25.8051 23.6107 26.2345 21.4881 26.2345 21.4881C26.2345 21.4881 26.8069 22.7475 24.8781 27.2262C23.8278 29.6636 24.1823 31.0993 24.7438 31.3943C28.9119 33.5808 35.0002 25.4096 35.0002 17.1746C34.9957 15.5716 34.5422 13.0218 33.941 11.5906Z" fill="url(#paint2_linear)"/>
</g>
<defs>
<linearGradient id="paint0_linear" x1="0.701102" y1="22.742" x2="25.5568" y2="11.6756" gradientUnits="userSpaceOnUse">
<stop offset="0.0321" stop-color="#066358"/>
<stop offset="0.4991" stop-color="#339484"/>
<stop offset="0.5069" stop-color="#349585"/>
<stop offset="0.9706" stop-color="#09A390"/>
</linearGradient>
<linearGradient id="paint1_linear" x1="9.29099" y1="14.3085" x2="17.4186" y2="10.6898" gradientUnits="userSpaceOnUse">
<stop offset="0.0321" stop-color="#066358"/>
<stop offset="0.4991" stop-color="#339484"/>
<stop offset="0.5069" stop-color="#349585"/>
<stop offset="0.9706" stop-color="#09A390"/>
</linearGradient>
<linearGradient id="paint2_linear" x1="16.2923" y1="25.9727" x2="36.3669" y2="17.0349" gradientUnits="userSpaceOnUse">
<stop offset="0.0321" stop-color="#066358"/>
<stop offset="0.4991" stop-color="#339484"/>
<stop offset="0.5069" stop-color="#349585"/>
<stop offset="0.9706" stop-color="#09A390"/>
</linearGradient>
<clipPath id="clip0">
<rect width="35" height="33" fill="white"/>
</clipPath>
</defs>
</svg>
