<svg width="35" height="20" viewBox="0 0 35 20" fill="none" xmlns="http://www.w3.org/2000/svg">
<path d="M0.427581 0.124233H1.98615V10.9947H0.427581V0.124233Z" fill="black"/>
<path d="M8.43195 11.1189C7.6111 11.1189 6.81623 10.9947 6.04733 10.7462C5.28883 10.4874 4.69137 10.1561 4.25497 9.75232L4.83164 8.54105C5.24726 8.91375 5.77718 9.21916 6.42139 9.45727C7.07599 9.68503 7.74617 9.79891 8.43195 9.79891C9.33592 9.79891 10.0113 9.6488 10.4581 9.34857C10.9049 9.03798 11.1283 8.62905 11.1283 8.12176C11.1283 7.74906 11.0036 7.44883 10.7542 7.22107C10.5152 6.98295 10.2139 6.80178 9.85025 6.67755C9.49697 6.55331 8.99303 6.41355 8.33843 6.25826C7.51758 6.06156 6.85259 5.86485 6.34346 5.66815C5.84472 5.47145 5.41351 5.17122 5.04984 4.76746C4.69657 4.35335 4.51993 3.79947 4.51993 3.10584C4.51993 2.52608 4.67059 2.00326 4.97191 1.53739C5.28363 1.07151 5.7512 0.698812 6.37463 0.419287C6.99806 0.139762 7.77215 0 8.6969 0C9.34111 0 9.97493 0.0828222 10.5984 0.248466C11.2218 0.414111 11.7569 0.652225 12.2037 0.962809L11.6894 2.20514C11.2322 1.91526 10.7438 1.69786 10.2243 1.55292C9.70478 1.39763 9.19565 1.31998 8.6969 1.31998C7.81371 1.31998 7.14872 1.48045 6.70193 1.80138C6.26553 2.12232 6.04733 2.53643 6.04733 3.04372C6.04733 3.41642 6.17202 3.72183 6.42139 3.95994C6.67076 4.1877 6.97728 4.36888 7.34095 4.50346C7.715 4.6277 8.21894 4.76228 8.85276 4.90722C9.67361 5.10392 10.3334 5.30063 10.8321 5.49733C11.3309 5.69403 11.7569 5.99426 12.1102 6.39802C12.4738 6.80178 12.6557 7.3453 12.6557 8.02859C12.6557 8.59799 12.4998 9.1208 12.1881 9.59703C11.8764 10.0629 11.4036 10.4356 10.7698 10.7151C10.136 10.9843 9.3567 11.1189 8.43195 11.1189Z" fill="black"/>
<path d="M22.9125 11.1655L21.4631 9.72127C20.4968 10.653 19.2811 11.1189 17.816 11.1189C17.0887 11.1189 16.4341 10.9998 15.8522 10.7617C15.2703 10.5236 14.8132 10.1923 14.4807 9.76785C14.1586 9.33304 13.9975 8.84128 13.9975 8.29258C13.9975 7.63 14.2001 7.04507 14.6054 6.53778C15.021 6.02015 15.7015 5.49215 16.6471 4.95381C16.1691 4.47758 15.8314 4.04794 15.634 3.66489C15.4366 3.28183 15.3379 2.88325 15.3379 2.46914C15.3379 1.73409 15.6028 1.14398 16.1328 0.698812C16.6731 0.253643 17.39 0.031058 18.2836 0.031058C19.1148 0.031058 19.7746 0.232937 20.263 0.636696C20.7513 1.04045 20.9955 1.59433 20.9955 2.29832C20.9955 2.84702 20.8137 3.33877 20.45 3.77359C20.0967 4.20841 19.5045 4.66393 18.6732 5.14016L21.3696 7.81118C21.6813 7.22107 21.9047 6.56367 22.0397 5.83897L23.2398 6.2272C23.0528 7.17966 22.7359 8.00788 22.2891 8.71187L23.7542 10.1716L22.9125 11.1655ZM18.2836 1.1181C17.7952 1.1181 17.4108 1.24233 17.1302 1.4908C16.8601 1.72891 16.725 2.04467 16.725 2.43808C16.725 2.71761 16.7977 2.98678 16.9432 3.2456C17.0991 3.50442 17.3952 3.85641 17.8316 4.30158C18.5485 3.89782 19.0421 3.55101 19.3122 3.26113C19.5928 2.97125 19.7331 2.65549 19.7331 2.31385C19.7331 1.9515 19.6032 1.66162 19.3434 1.44421C19.094 1.2268 18.7408 1.1181 18.2836 1.1181ZM17.9095 9.87656C18.9901 9.87656 19.8785 9.53492 20.5747 8.85163L17.4731 5.77685C16.725 6.19097 16.2003 6.5792 15.899 6.94154C15.608 7.29354 15.4626 7.69212 15.4626 8.13729C15.4626 8.65493 15.686 9.07422 16.1328 9.39515C16.5899 9.71609 17.1822 9.87656 17.9095 9.87656Z" fill="black"/>
<path d="M32.9583 5.35757C33.5921 5.53356 34.0908 5.8545 34.4545 6.32038C34.8182 6.7759 35 7.35565 35 8.05964C35 9.00175 34.6415 9.72644 33.9246 10.2337C33.218 10.741 32.1842 10.9947 30.823 10.9947H25.6174V0.124233H30.5113C31.7582 0.124233 32.7193 0.3727 33.3947 0.869634C34.0804 1.36657 34.4233 2.05503 34.4233 2.93501C34.4233 3.50442 34.2883 3.99618 34.0181 4.41029C33.7583 4.8244 33.4051 5.14016 32.9583 5.35757ZM27.176 1.3821V4.86063H30.371C31.1711 4.86063 31.7841 4.71569 32.2102 4.42582C32.6466 4.12559 32.8648 3.69077 32.8648 3.12136C32.8648 2.55196 32.6466 2.12232 32.2102 1.83244C31.7841 1.53221 31.1711 1.3821 30.371 1.3821H27.176ZM30.7607 9.7368C31.6439 9.7368 32.3089 9.59186 32.7557 9.30198C33.2024 9.0121 33.4258 8.55658 33.4258 7.93541C33.4258 6.72413 32.5375 6.1185 30.7607 6.1185H27.176V9.7368H30.7607Z" fill="black"/>
<path d="M11.333 12.191L8.69461 19.9556H8.09344L5.67766 12.9897L3.25074 19.9556H2.64957L0 12.191H0.601164L2.97242 19.1792L5.41047 12.191H5.95597L8.38289 19.1903L10.7764 12.191H11.333Z" fill="black"/>
<path d="M14.3051 14.1211C15.025 14.1211 15.578 14.306 15.9639 14.6757C16.3498 15.0381 16.5428 15.5742 16.5428 16.2841V19.9556H16.0084V18.924C15.8229 19.2642 15.552 19.5304 15.1957 19.7227C14.8395 19.9076 14.4127 20 13.9155 20C13.2698 20 12.7577 19.8484 12.3792 19.5452C12.0081 19.242 11.8225 18.8427 11.8225 18.3473C11.8225 17.8666 11.9932 17.4784 12.3346 17.1826C12.6835 16.8794 13.2364 16.7278 13.9934 16.7278H15.9861V16.2619C15.9861 15.7221 15.8377 15.3117 15.5408 15.0307C15.2514 14.7497 14.8246 14.6092 14.2606 14.6092C13.8747 14.6092 13.5036 14.6757 13.1473 14.8088C12.7985 14.9419 12.5016 15.1194 12.2567 15.3412L11.9784 14.9419C12.2678 14.6831 12.6167 14.4834 13.0249 14.3429C13.4331 14.195 13.8598 14.1211 14.3051 14.1211ZM13.9934 19.5452C14.4758 19.5452 14.884 19.4343 15.218 19.2124C15.5594 18.9906 15.8154 18.6689 15.9861 18.2474V17.1604H14.0045C13.4331 17.1604 13.0174 17.2639 12.7577 17.471C12.5053 17.678 12.3792 17.9627 12.3792 18.3251C12.3792 18.7022 12.5202 19.0017 12.8022 19.2235C13.0842 19.438 13.4813 19.5452 13.9934 19.5452Z" fill="black"/>
<path d="M18.8362 11.7252H19.3928V19.9556H18.8362V11.7252Z" fill="black"/>
<path d="M21.7389 11.7252H22.2956V19.9556H21.7389V11.7252Z" fill="black"/>
<path d="M29.5512 17.1937H24.5526C24.5675 17.6447 24.6825 18.0478 24.8978 18.4027C25.113 18.7503 25.4024 19.0202 25.7661 19.2124C26.1372 19.4047 26.5528 19.5008 27.013 19.5008C27.3915 19.5008 27.7403 19.4343 28.0594 19.3012C28.386 19.1607 28.6569 18.9573 28.8721 18.6911L29.195 19.0572C28.9426 19.3603 28.6235 19.5933 28.2376 19.756C27.859 19.9187 27.4471 20 27.0018 20C26.4229 20 25.9071 19.8743 25.4544 19.6229C25.0017 19.3714 24.6454 19.0239 24.3857 18.5802C24.1333 18.1365 24.0071 17.63 24.0071 17.0605C24.0071 16.4985 24.1259 15.9957 24.3634 15.552C24.6083 15.1009 24.9423 14.7497 25.3653 14.4982C25.7884 14.2468 26.2634 14.1211 26.7903 14.1211C27.3172 14.1211 27.7885 14.2468 28.2042 14.4982C28.6272 14.7423 28.9575 15.0861 29.195 15.5298C29.4399 15.9735 29.5623 16.4764 29.5623 17.0384L29.5512 17.1937ZM26.7903 14.6092C26.3821 14.6092 26.0147 14.7016 25.6882 14.8865C25.3616 15.0639 25.0981 15.3191 24.8978 15.6518C24.7048 15.9772 24.5935 16.3469 24.5638 16.7611H29.0168C28.9946 16.3469 28.8832 15.9772 28.6829 15.6518C28.4825 15.3265 28.219 15.0713 27.8924 14.8865C27.5659 14.7016 27.1985 14.6092 26.7903 14.6092Z" fill="black"/>
<path d="M34.1677 19.5896C34.0267 19.7227 33.8486 19.8262 33.6333 19.9002C33.4255 19.9667 33.2066 20 32.9765 20C32.4718 20 32.0822 19.8632 31.8076 19.5896C31.533 19.3086 31.3957 18.9204 31.3957 18.4249V14.6424H30.3269V14.1655H31.3957V12.9009H31.9523V14.1655H33.8003V14.6424H31.9523V18.3694C31.9523 18.7466 32.0414 19.035 32.2195 19.2346C32.405 19.4269 32.6759 19.523 33.0322 19.523C33.3958 19.523 33.6964 19.4158 33.9339 19.2014L34.1677 19.5896Z" fill="black"/>
</svg>
